<svg aria-hidden="true" style="position: absolute; width: 0; height: 0; overflow: hidden;" version="1.1" xmlns="http://www.w3.org/2000/svg" xmlns:xlink="http://www.w3.org/1999/xlink">
<defs>
<symbol id="icon-smartphone" viewBox="0 0 20 32">
<path fill="#757575" style="fill: var(--color1, #757575)" d="M17 0h-14c-1.654 0-3 1.346-3 3v26c0 1.654 1.346 3 3 3h14c1.654 0 3-1.346 3-3v-26c0-1.654-1.346-3-3-3zM3 2h14c0.552 0 1 0.448 1 1v21h-16v-21c0-0.552 0.448-1 1-1zM17 30h-14c-0.552 0-1-0.448-1-1v-3h16v3c0 0.552-0.448 1-1 1z"></path>
<path fill="#757575" style="fill: var(--color1, #757575)" d="M4.707 27.478c0.391 0.364 0.391 0.955 0 1.32s-1.024 0.365-1.414 0c-0.391-0.364-0.391-0.955 0-1.32s1.024-0.365 1.414 0z"></path>
</symbol>
<symbol id="icon-envelope" viewBox="0 0 43 32">
<path fill="#757575" style="fill: var(--color1, #757575)" d="M38.667 0h-34.667c-2.206 0-4 1.794-4 4v24c0 2.206 1.794 4 4 4h34.667c2.206 0 4-1.794 4-4v-24c0-2.206-1.794-4-4-4zM38.667 2.667c0.181 0 0.353 0.038 0.511 0.103l-17.844 15.466-17.844-15.466c0.158-0.066 0.33-0.103 0.511-0.103h34.667zM38.667 29.333h-34.667c-0.736 0-1.333-0.598-1.333-1.333v-22.413l17.793 15.421c0.251 0.217 0.563 0.326 0.874 0.326s0.622-0.108 0.874-0.326l17.793-15.421v22.413c0 0.736-0.598 1.333-1.333 1.333z"></path>
</symbol>
<symbol id="icon-linkedin" viewBox="0 0 32 32">
<path fill="#fff" style="fill: currentcolor" d="M31.992 32v-0.001h0.008v-11.736c0-5.741-1.236-10.164-7.948-10.164-3.227 0-5.392 1.771-6.276 3.449h-0.093v-2.913h-6.364v21.364h6.627v-10.579c0-2.785 0.528-5.479 3.977-5.479 3.399 0 3.449 3.179 3.449 5.657v10.401h6.62z"></path>
<path fill="#fff" style="fill:currentcolor" d="M0.528 10.636h6.635v21.364h-6.635v-21.364z"></path>
<path fill="#fff" style="fill:currentcolor" d="M3.843 0c-2.121 0-3.843 1.721-3.843 3.843s1.721 3.879 3.843 3.879c2.121 0 3.843-1.757 3.843-3.879-0.001-2.121-1.723-3.843-3.843-3.843v0z"></path>
</symbol>
<symbol id="icon-instagram" viewBox="0 0 32 32">
<path fill="#fff" style="fill:currentcolor" d="M31.969 9.408c-0.075-1.7-0.35-2.869-0.744-3.882-0.406-1.075-1.032-2.038-1.851-2.838-0.8-0.813-1.769-1.444-2.832-1.844-1.019-0.394-2.182-0.669-3.882-0.744-1.713-0.081-2.257-0.1-6.601-0.1s-4.888 0.019-6.595 0.094c-1.7 0.075-2.869 0.35-3.882 0.744-1.075 0.406-2.038 1.031-2.838 1.85-0.813 0.8-1.444 1.769-1.844 2.832-0.394 1.019-0.669 2.182-0.744 3.882-0.081 1.713-0.1 2.257-0.1 6.601s0.019 4.888 0.094 6.595c0.075 1.7 0.35 2.869 0.744 3.882 0.406 1.075 1.038 2.038 1.85 2.838 0.8 0.813 1.769 1.444 2.832 1.844 1.019 0.394 2.182 0.669 3.882 0.744 1.706 0.075 2.25 0.094 6.595 0.094s4.888-0.019 6.595-0.094c1.7-0.075 2.869-0.35 3.882-0.744 2.151-0.832 3.851-2.532 4.682-4.682 0.394-1.019 0.669-2.182 0.744-3.882 0.075-1.707 0.094-2.251 0.094-6.595s-0.006-4.888-0.081-6.595zM29.087 22.473c-0.069 1.563-0.331 2.407-0.55 2.969-0.538 1.394-1.644 2.5-3.038 3.038-0.563 0.219-1.413 0.481-2.969 0.55-1.688 0.075-2.194 0.094-6.464 0.094s-4.782-0.019-6.464-0.094c-1.563-0.069-2.407-0.331-2.969-0.55-0.694-0.256-1.325-0.663-1.838-1.194-0.531-0.519-0.938-1.144-1.194-1.838-0.219-0.563-0.481-1.413-0.55-2.969-0.075-1.688-0.094-2.194-0.094-6.464s0.019-4.782 0.094-6.464c0.069-1.563 0.331-2.407 0.55-2.969 0.256-0.694 0.663-1.325 1.2-1.838 0.519-0.531 1.144-0.938 1.838-1.194 0.563-0.219 1.413-0.481 2.969-0.55 1.688-0.075 2.194-0.094 6.464-0.094 4.276 0 4.782 0.019 6.464 0.094 1.563 0.069 2.407 0.331 2.969 0.55 0.694 0.256 1.325 0.662 1.838 1.194 0.531 0.519 0.938 1.144 1.194 1.838 0.219 0.563 0.481 1.413 0.55 2.969 0.075 1.688 0.094 2.194 0.094 6.464s-0.019 4.77-0.094 6.458z"></path>
<path fill="#fff" style="fill:currentcolor" d="M16.059 7.783c-4.538 0-8.22 3.682-8.22 8.22s3.682 8.22 8.22 8.22c4.538 0 8.22-3.682 8.22-8.22s-3.682-8.22-8.22-8.22zM16.059 21.335c-2.944 0-5.332-2.388-5.332-5.332s2.388-5.332 5.332-5.332c2.944 0 5.332 2.388 5.332 5.332s-2.388 5.332-5.332 5.332z"></path>
<path fill="#fff" style="fill:currentcolor" d="M26.524 7.458c0 1.060-0.859 1.919-1.919 1.919s-1.919-0.859-1.919-1.919c0-1.060 0.859-1.919 1.919-1.919s1.919 0.859 1.919 1.919z"></path>
</symbol>
<symbol id="icon-facebook" viewBox="0 0 32 32">
<path fill="#fff" style="fill:currentcolor" d="M21.329 5.313h2.921v-5.088c-0.504-0.069-2.237-0.225-4.256-0.225-4.212 0-7.097 2.649-7.097 7.519v4.481h-4.648v5.688h4.648v14.312h5.699v-14.311h4.46l0.708-5.688h-5.169v-3.919c0.001-1.644 0.444-2.769 2.735-2.769z"></path>
</symbol>
<symbol id="icon-twitter" viewBox="0 0 32 32">
<path fill="#2196f3" style="fill: var(--color2, #2196f3)" d="M32 16c0 4.418-1.791 8.418-4.686 11.314s-6.895 4.686-11.314 4.686-8.418-1.791-11.314-4.686c-2.895-2.895-4.686-6.895-4.686-11.314s1.791-8.418 4.686-11.314 6.895-4.686 11.314-4.686c4.418 0 8.418 1.791 11.314 4.686s4.686 6.895 4.686 11.314z"></path>
<path fill="#fff" style="fill: var(--color1, #fff)" d="M23.273 11.49c-0.541 0.237-1.117 0.394-1.718 0.471 0.618-0.369 1.090-0.949 1.312-1.648-0.576 0.344-1.213 0.586-1.891 0.722-0.547-0.583-1.327-0.944-2.178-0.944-1.651 0-2.98 1.34-2.98 2.983 0 0.236 0.020 0.464 0.069 0.68-2.479-0.121-4.673-1.309-6.146-3.119-0.257 0.446-0.408 0.957-0.408 1.507 0 1.033 0.532 1.948 1.325 2.478-0.479-0.009-0.949-0.148-1.347-0.367 0 0.009 0 0.021 0 0.033 0 1.449 1.034 2.653 2.389 2.93-0.243 0.066-0.507 0.098-0.782 0.098-0.191 0-0.384-0.011-0.565-0.051 0.386 1.181 1.483 2.049 2.786 2.077-1.015 0.794-2.303 1.272-3.697 1.272-0.245 0-0.479-0.011-0.714-0.041 1.321 0.852 2.886 1.338 4.575 1.338 5.487 0 8.487-4.545 8.487-8.485 0-0.132-0.005-0.259-0.011-0.385 0.592-0.42 1.089-0.944 1.495-1.548z"></path>
</symbol>
<symbol id="icon-antenna-1" viewBox="0 0 32 32">
<path fill="#212121" style="fill: var(--color1, #212121)" d="M30.773 22.098l-8.443-8.505 0.937-4.615c0.242 0.094 0.499 0.144 0.758 0.146h0.006c1.192 0.014 2.17-0.941 2.184-2.133s-0.941-2.17-2.133-2.184c-1.192-0.014-2.17 0.941-2.184 2.133-0.003 0.255 0.039 0.509 0.125 0.749l-4.96 0.605-8.091-8.133c-0.099-0.101-0.235-0.159-0.377-0.16-0.14 0.001-0.274 0.056-0.373 0.155l-1.513 1.504c-0.208 0.208-0.208 0.546 0 0.754l0.814 0.826c-3.153 5.798-2.129 12.978 2.519 17.663 0.043 0.041 0.092 0.074 0.146 0.098-0.034 0.18-0.051 0.364-0.052 0.547v6.187h-6.4c-1.472 0.002-2.665 1.195-2.667 2.667v1.067c0 0.295 0.239 0.533 0.533 0.533h24.533c0.295 0 0.533-0.239 0.533-0.533v-1.067c-0.002-1.472-1.195-2.665-2.667-2.667h-6.4v-2.742c1.003 0.21 2.024 0.317 3.049 0.32 2.458-0.003 4.877-0.615 7.040-1.783l0.818 0.823c0.099 0.101 0.235 0.159 0.377 0.16 0.14-0.001 0.274-0.056 0.373-0.155l1.513-1.504c0.208-0.208 0.208-0.546 0-0.754zM23.28 6.233c0.418-0.415 1.093-0.414 1.508 0.004s0.414 1.093-0.004 1.508c-0.2 0.199-0.47 0.31-0.752 0.31h-0.003c-0.589-0.003-1.064-0.483-1.061-1.072 0.002-0.282 0.115-0.552 0.314-0.751h-0.002zM22.024 9.738l-0.598 2.946-1.175-1.182 1.774-1.763zM21.419 8.836l-1.92 1.909-1.485-1.493 3.405-0.415zM24.004 28.8c0.884 0 1.6 0.716 1.6 1.6v0.533h-23.467v-0.533c0-0.884 0.716-1.6 1.6-1.6h20.267zM16.537 26.667v1.067h-5.333v-1.067h5.333zM11.204 25.6v-4.053c0-1.294 1.196-2.347 2.667-2.347s2.667 1.053 2.667 2.347v4.053h-5.333zM17.604 23.904v-2.357c0-1.882-1.675-3.413-3.733-3.413-1.331-0.020-2.576 0.657-3.281 1.786-4.058-4.274-4.971-10.645-2.279-15.887l18.602 18.708c-2.872 1.461-6.165 1.873-9.309 1.163zM28.893 23.22l-21.057-21.181 0.755-0.752 7.935 7.98c0.004 0 0.006 0.007 0.010 0.010l13.115 13.191-0.757 0.752z"></path>
<path fill="#2196f3" style="fill: var(--color2, #2196f3)" d="M13.876 20.267h-0.005c-0.884-0.001-1.601 0.714-1.602 1.598s0.714 1.601 1.598 1.602h0.005c0.884 0.001 1.601-0.714 1.602-1.598s-0.714-1.601-1.598-1.602zM14.249 22.245c-0.1 0.1-0.236 0.156-0.378 0.155-0.295-0.002-0.532-0.242-0.531-0.536 0.001-0.141 0.057-0.276 0.157-0.375s0.233-0.154 0.373-0.155c0.295 0.002 0.532 0.241 0.53 0.536-0.001 0.141-0.057 0.276-0.157 0.375h0.005z"></path>
</symbol>
<symbol id="icon-clock-1" viewBox="0 0 32 32">
<path fill="#212121" style="fill: var(--color1, #212121)" d="M31.297 15.301c-0.002-8.452-6.855-15.303-15.308-15.301s-15.303 6.855-15.301 15.308c0.001 6.658 4.307 12.551 10.649 14.576 0.061 0.019 0.124 0.029 0.187 0.029 0.121-0 0.239-0.032 0.342-0.094 0.135-0.080 0.236-0.207 0.283-0.356l3.865-12.25c1.057-0.005 1.909-0.866 1.903-1.923s-0.866-1.909-1.923-1.903c-0.284 0.001-0.565 0.067-0.82 0.191l-5.106-5.107c-0.253-0.245-0.657-0.238-0.902 0.016-0.239 0.247-0.239 0.639 0 0.886l5.103 5.109c-0.392 0.799-0.168 1.764 0.536 2.309l-3.683 11.673c-7.278-2.681-11.004-10.754-8.323-18.032s10.754-11.004 18.032-8.323 11.004 10.754 8.323 18.032c-1.31 3.556-4.001 6.431-7.462 7.973l-0.398-1.874c-0.073-0.344-0.411-0.565-0.756-0.492-0.109 0.023-0.209 0.074-0.292 0.148l-3.837 3.426c-0.263 0.234-0.287 0.637-0.052 0.9 0.076 0.085 0.174 0.149 0.283 0.184l4.899 1.563c0.335 0.108 0.694-0.077 0.802-0.412 0.034-0.106 0.040-0.219 0.017-0.328l-0.391-1.839c5.664-2.388 9.342-7.942 9.329-14.089zM15.992 14.664c0.352 0 0.638 0.286 0.638 0.638s-0.286 0.638-0.638 0.638c-0.352 0-0.638-0.285-0.638-0.638s0.285-0.638 0.638-0.638zM18.093 29.528l2.184-1.948 0.603 2.84-2.787-0.892z"></path>
<path fill="#2196f3" style="fill: var(--color2, #2196f3)" d="M15.354 3.185v1.275c0 0.352 0.285 0.638 0.638 0.638s0.638-0.285 0.638-0.638v-1.275c0-0.352-0.286-0.638-0.638-0.638s-0.638 0.286-0.638 0.638z"></path>
<path fill="#2196f3" style="fill: var(--color2, #2196f3)" d="M3.876 14.664c-0.352 0-0.638 0.286-0.638 0.638s0.285 0.638 0.638 0.638h1.275c0.352 0 0.638-0.285 0.638-0.638s-0.285-0.638-0.638-0.638h-1.275z"></path>
<path fill="#2196f3" style="fill: var(--color2, #2196f3)" d="M28.108 15.939c0.352 0 0.638-0.285 0.638-0.638s-0.285-0.638-0.638-0.638h-1.275c-0.352 0-0.638 0.286-0.638 0.638s0.286 0.638 0.638 0.638h1.275z"></path>
</symbol>
<symbol id="icon-astronaut-1" viewBox="0 0 32 32">
<path fill="#2196f3" style="fill: var(--color1, #2196f3)" d="M32 4.526c-0.091-0.183-0.274-0.32-0.457-0.366l-1.92-0.274-0.823-1.737c-0.183-0.366-0.777-0.366-0.96 0l-0.914 1.737-1.829 0.274c-0.265 0.042-0.465 0.269-0.465 0.542 0 0.144 0.055 0.275 0.146 0.372l-0-0 1.371 1.371-0.32 1.874c-0.002 0.015-0.002 0.033-0.002 0.051 0 0.303 0.246 0.549 0.549 0.549 0.084 0 0.163-0.019 0.234-0.052l-0.003 0.001 1.691-0.914 1.691 0.914c0.068 0.032 0.147 0.051 0.231 0.051 0.303 0 0.549-0.246 0.549-0.549 0-0.018-0.001-0.036-0.003-0.053l0 0.002-0.32-1.92 1.371-1.371c0.183-0.091 0.229-0.32 0.137-0.503zM29.531 5.851c-0.137 0.137-0.183 0.32-0.183 0.457l0.183 1.143-1.006-0.549c-0.067-0.032-0.146-0.050-0.229-0.050s-0.162 0.018-0.232 0.051l0.003-0.001-1.006 0.549 0.183-1.143c0-0.137 0-0.32-0.137-0.457l-0.823-0.777 1.097-0.183c0.183 0 0.32-0.137 0.457-0.274l0.457-1.006 0.503 0.96c0.091 0.137 0.229 0.274 0.411 0.274l1.097 0.183-0.777 0.777zM26.149 20.526h-1.097v1.051h1.097v-1.006zM26.149 22.674h-1.097v1.051h1.097v-1.051zM27.2 21.577h-1.051v1.097h1.051v-1.097zM25.051 21.577h-1.051v1.097h1.051v-1.097zM22.4 26.377h-1.051v1.097h1.051v-1.097zM22.4 28.526h-1.051v1.051h1.051v-1.051zM23.451 27.429h-1.051v1.097h1.051v-1.097zM21.349 27.429h-1.097v1.097h1.097v-1.097zM16 24.229h-1.051v1.097h1.051v-1.097zM16 26.377h-1.051v1.097h1.051v-1.097zM17.051 25.326h-1.051v1.051h1.051v-1.051zM14.949 25.326h-1.097v1.051h1.097v-1.051zM5.851 6.126h-1.051v1.051h1.051v-1.051zM5.851 8.229h-1.051v1.097h1.051v-1.097z"></path>
<path fill="#2196f3" style="fill: var(--color1, #2196f3)" d="M6.949 7.177h-1.097v1.097h1.097v-1.097zM4.8 7.177h-1.051v1.097h1.051v-1.097z"></path>
<path fill="#212121" style="fill: var(--color2, #212121)" d="M24.686 14.171c-0.266-0.377-0.668-0.643-1.132-0.73l-0.011-0.002c-0.457-0.046-0.96 0.091-1.371 0.366l-1.234 0.96-1.92 1.417-1.371-0.549c2.403-1.128 4.037-3.528 4.037-6.309 0-3.81-3.067-6.904-6.867-6.948l-0.004-0c-3.818 0.025-6.904 3.127-6.904 6.948 0 1.392 0.409 2.689 1.114 3.776l-0.016-0.027h-3.063l-3.2 1.646-1.92 0.914h-0.091c-0.524 0.317-0.869 0.884-0.869 1.531 0 0.985 0.799 1.784 1.784 1.784 0.338 0 0.653-0.094 0.922-0.257l-0.008 0.004 1.371-0.731 2.286-1.143h1.371l-5.394 5.349-1.371 1.371c-0.286 0.296-0.462 0.699-0.462 1.143s0.176 0.847 0.462 1.143l-0-0c0.3 0.313 0.722 0.507 1.189 0.507s0.889-0.194 1.188-0.507l0.001-0.001 1.371-1.28 1.691-1.28 0.914 0.914-1.783 1.737-1.28 1.371c-0.299 0.298-0.484 0.71-0.484 1.166s0.185 0.868 0.484 1.166l0 0c0.305 0.302 0.725 0.488 1.189 0.488s0.883-0.186 1.189-0.488l3.428-3.428 1.006-0.96 5.166-5.714 3.474 0.503c0.041 0.012 0.088 0.019 0.137 0.019s0.096-0.007 0.141-0.020l-0.004 0.001 0.046-0.046h0.046l3.2-2.149 0.046-0.046h0.046l1.28-1.234c0.345-0.326 0.559-0.786 0.559-1.297 0-0.388-0.124-0.747-0.334-1.040l0.004 0.005zM2.194 17.783c-0.183 0.091-0.366 0.091-0.594 0-0.264-0.114-0.445-0.373-0.445-0.673 0-0.225 0.101-0.426 0.261-0.56l0.001-0.001 1.28-0.64 0.32 0.914 0.137 0.457-0.96 0.457zM5.669 15.954l-1.554 0.777-0.274-0.731-0.183-0.549 2.011-1.006v1.554zM20.754 9.326c0 0.914-0.183 1.783-0.594 2.56l-4.16-1.92c-0.041-0.569-0.336-1.061-0.771-1.368l-0.006-0.004 1.463-4.846c2.377 0.731 4.114 2.971 4.114 5.577zM9.006 9.326c0.032-3.232 2.66-5.841 5.897-5.841 0.226 0 0.448 0.013 0.667 0.037l-0.027-0.002-1.417 4.709c-0.027-0.001-0.059-0.002-0.091-0.002-1.010 0-1.829 0.819-1.829 1.829 0 0.001 0 0.002 0 0.002v-0c-0.013 0.081-0.020 0.175-0.020 0.271 0 1.010 0.819 1.829 1.829 1.829 0.779 0 1.444-0.487 1.707-1.172l0.004-0.012 3.84 1.783c-1.088 1.432-2.791 2.347-4.709 2.347-3.23 0-5.854-2.597-5.897-5.818l-0-0.004zM14.949 10.103c0 0.457-0.366 0.823-0.823 0.823s-0.777-0.366-0.777-0.823 0.32-0.777 0.777-0.777 0.823 0.366 0.823 0.777zM2.514 25.189c-0.229 0.183-0.64 0.183-0.869 0-0.131-0.11-0.215-0.274-0.215-0.457s0.083-0.347 0.214-0.456l0.001-0.001 0.96-0.914 0.869 0.823-1.006 0.96zM5.714 28.846c-0.229 0.274-0.594 0.274-0.823 0-0.102-0.107-0.165-0.252-0.165-0.411s0.063-0.305 0.166-0.412l0.914-0.914 0.457 0.366 0.457 0.457-1.006 0.914zM9.189 25.417l-1.737 1.737-0.457-0.366-0.411-0.457 1.783-1.783 0.091-0.137v-0.183l0.046-0.091v-0.183l-0.137-0.137v-0.046l-1.6-1.6h-0.091l-0.091-0.091h-0.091l-0.091-0.046h-0.183l-0.091 0.046h-0.183l-1.737 1.371-0.914-0.914 2.377-2.377 4.389 4.297-0.914 0.914zM16.046 18.377h-0.046c-0.019-0.002-0.040-0.004-0.062-0.004-0.136 0-0.259 0.054-0.349 0.141l0-0v0.046l-4.8 5.211-4.343-4.251 2.834-2.834c0.088-0.097 0.141-0.226 0.141-0.367 0-0.288-0.222-0.525-0.505-0.547l-0.002-0h-2.24v-1.6h3.109c1.266 1.312 3.039 2.127 5.003 2.127 0.445 0 0.881-0.042 1.303-0.122l-0.043 0.007 0.137 0.091 2.423 0.914 0.137 0.777 0.183 0.914-2.971-0.457zM20.069 18.56l-0.32-1.554 1.463-1.051 0.366 0.457 0.549 0.777-2.057 1.371zM23.817 15.726l-0.823 0.823-0.914-1.28 0.823-0.594c0.137-0.137 0.32-0.183 0.503-0.183 0.372 0.037 0.661 0.349 0.661 0.728 0 0.197-0.078 0.375-0.204 0.507l0-0z"></path>
<path fill="#212121" style="fill: var(--color2, #212121)" d="M13.623 18.56l-2.194-2.149c-0.229-0.229-0.549-0.229-0.777 0l-2.149 2.149c-0.087 0.097-0.14 0.225-0.14 0.366s0.053 0.269 0.14 0.366l-0-0 2.149 2.149c0.099 0.1 0.237 0.161 0.389 0.161s0.289-0.062 0.389-0.161v0l2.149-2.149c0.087-0.097 0.14-0.225 0.14-0.366s-0.053-0.269-0.14-0.366l0 0zM11.063 20.297l-1.371-1.371 1.371-1.371 1.371 1.371-1.371 1.371zM17.143 5.029l-0.229 1.097c0.046 0 1.737 0.457 1.737 2.149h1.006c0-2.057-1.646-2.971-2.56-3.2zM19.703 9.326h-1.051v1.051h1.006v-1.051z"></path>
</symbol>
<symbol id="icon-diagram-1" viewBox="0 0 32 32">
<path fill="#2196f3" style="fill: var(--color2, #2196f3)" d="M14.926 14.965h1.066v4.798h-1.066v-4.797z"></path>
<path fill="#2196f3" style="fill: var(--color2, #2196f3)" d="M19.19 17.097h1.066v2.665h-1.066v-2.665z"></path>
<path fill="#2196f3" style="fill: var(--color2, #2196f3)" d="M10.661 18.696h1.066v1.066h-1.066v-1.066z"></path>
<path fill="#2196f3" style="fill: var(--color2, #2196f3)" d="M7.463 18.163h1.066v1.599h-1.066v-1.599z"></path>
<path fill="#212121" style="fill: var(--color1, #212121)" d="M1.599 28.291h25.587c0.883 0 1.599-0.716 1.599-1.599v-2.132c0-0.883-0.716-1.599-1.599-1.599h-0.533v-13.293l3.028-2.868c0.703 0.346 1.553 0.136 2.013-0.499s0.396-1.508-0.152-2.068-1.42-0.644-2.065-0.198c-0.644 0.446-0.873 1.292-0.542 2.002l-2.281 2.163v-1.23c0-0.883-0.716-1.599-1.599-1.599h-21.322c-0.883 0-1.599 0.716-1.599 1.599v15.992h-0.533c-0.883 0-1.599 0.716-1.599 1.599v2.132c0 0.883 0.716 1.599 1.599 1.599zM30.384 4.837c0.294 0 0.533 0.239 0.533 0.533s-0.239 0.533-0.533 0.533c-0.294 0-0.533-0.239-0.533-0.533s0.239-0.533 0.533-0.533zM3.198 6.969c0-0.294 0.239-0.533 0.533-0.533h21.322c0.294 0 0.533 0.239 0.533 0.533v2.239l-1.066 1.013v-2.186c0-0.294-0.239-0.533-0.533-0.533h-19.19c-0.294 0-0.533 0.239-0.533 0.533v13.326c0 0.294 0.239 0.533 0.533 0.533h19.19c0.294 0 0.533-0.239 0.533-0.533v-9.674l1.066-1.010v12.284h-22.388v-15.992zM7.996 13.899c-0.721-0.002-1.354 0.478-1.546 1.174s0.105 1.433 0.725 1.801c0.62 0.368 1.41 0.276 1.928-0.226l1.853 0.93c0.215 0.108 0.476 0.057 0.636-0.123l3.939-4.431 3.872 2.901c0.208 0.156 0.498 0.139 0.686-0.039l3.365-3.188v8.131h-18.124v-12.26h18.124v2.66l-3.771 3.572-3.904-2.927c-0.222-0.166-0.534-0.135-0.718 0.072l-3.993 4.493-1.493-0.746c0.011-0.064 0.018-0.129 0.020-0.193 0-0.883-0.716-1.599-1.599-1.599zM8.529 15.498c0 0.294-0.239 0.533-0.533 0.533s-0.533-0.239-0.533-0.533c0-0.294 0.239-0.533 0.533-0.533s0.533 0.239 0.533 0.533zM11.727 24.027h5.331v0.533c0 0.294-0.239 0.533-0.533 0.533h-4.264c-0.294 0-0.533-0.239-0.533-0.533v-0.533zM1.066 24.56c0-0.294 0.239-0.533 0.533-0.533h9.062v0.533c0 0.883 0.716 1.599 1.599 1.599h4.264c0.883 0 1.599-0.716 1.599-1.599v-0.533h9.062c0.294 0 0.533 0.239 0.533 0.533v2.132c0 0.294-0.239 0.533-0.533 0.533h-25.587c-0.294 0-0.533-0.239-0.533-0.533v-2.132z"></path>
</symbol>
<symbol id="icon-Logo1" viewBox="0 0 57 32">
<path fill="#afb1b8" style="fill:currentcolor" d="M20.267 3.733l3.738 3.538-6.938-0.004v17.166h18.133v-6.564l3.733 3.534v-17.671h-18.667zM35.036 17.455l-10.597-10.032h10.597v10.032zM31.746 21.923h-11.81v-11.545h0.835v10.764h10.975v0.782zM22.725 26.72l-0.436 0.898-0.436-0.898h-0.366l0.637 1.198v0.698h0.331v-0.698l0.635-1.198h-0.365zM23.273 28.615l0.154-0.441h0.734l0.155 0.441h0.344l-0.717-1.896h-0.296l-0.716 1.896h0.342zM23.794 27.122l0.275 0.786h-0.549l0.275-0.786zM25.531 27.863c-0.048 0.073-0.072 0.153-0.072 0.241 0 0.16 0.056 0.29 0.168 0.389s0.263 0.148 0.451 0.148 0.349-0.051 0.484-0.152l0.107 0.126h0.367l-0.279-0.329c0.109-0.149 0.164-0.341 0.164-0.574h-0.275c0 0.128-0.026 0.243-0.079 0.348l-0.366-0.432 0.129-0.094c0.091-0.066 0.157-0.132 0.197-0.198s0.060-0.14 0.060-0.219c0-0.12-0.044-0.22-0.133-0.301s-0.201-0.122-0.339-0.122c-0.153 0-0.274 0.043-0.365 0.13s-0.135 0.203-0.135 0.352c0 0.061 0.014 0.124 0.043 0.189s0.081 0.144 0.155 0.237c-0.141 0.101-0.235 0.188-0.283 0.262zM26.386 28.282c-0.093 0.071-0.193 0.107-0.299 0.107-0.095 0-0.17-0.027-0.227-0.082s-0.085-0.126-0.085-0.214c0-0.102 0.052-0.192 0.156-0.271l0.040-0.029 0.414 0.488zM26.046 27.442c-0.089-0.11-0.134-0.202-0.134-0.275 0-0.063 0.018-0.116 0.055-0.158s0.085-0.063 0.147-0.063c0.057 0 0.105 0.018 0.142 0.053s0.056 0.077 0.056 0.126c0 0.075-0.027 0.136-0.081 0.184l-0.040 0.033-0.145 0.099zM29.132 28.472c0.13-0.114 0.205-0.272 0.224-0.474h-0.328c-0.017 0.135-0.059 0.232-0.124 0.29s-0.162 0.087-0.292 0.087c-0.142 0-0.249-0.054-0.323-0.161s-0.109-0.264-0.109-0.469v-0.168c0.002-0.202 0.041-0.355 0.117-0.46s0.188-0.158 0.331-0.158c0.123 0 0.217 0.030 0.28 0.091s0.104 0.158 0.12 0.294h0.328c-0.021-0.207-0.095-0.368-0.223-0.482s-0.296-0.171-0.505-0.171c-0.155 0-0.293 0.037-0.411 0.111s-0.209 0.179-0.272 0.315c-0.063 0.136-0.095 0.294-0.095 0.473v0.177c0.003 0.174 0.035 0.328 0.098 0.46s0.151 0.234 0.266 0.306c0.115 0.071 0.249 0.107 0.4 0.107 0.216 0 0.389-0.056 0.52-0.169zM31.068 28.206c0.064-0.141 0.096-0.304 0.096-0.49v-0.105c-0.001-0.185-0.034-0.347-0.099-0.486s-0.158-0.247-0.277-0.32c-0.119-0.075-0.256-0.112-0.41-0.112s-0.292 0.038-0.411 0.113c-0.119 0.075-0.211 0.183-0.277 0.324s-0.098 0.305-0.098 0.49v0.107c0.001 0.181 0.034 0.342 0.099 0.48s0.159 0.246 0.279 0.322c0.121 0.075 0.258 0.112 0.411 0.112 0.155 0 0.293-0.037 0.411-0.112s0.212-0.183 0.276-0.323zM30.716 27.135c0.080 0.112 0.12 0.273 0.12 0.483v0.099c0 0.214-0.040 0.376-0.119 0.487s-0.19 0.167-0.336 0.167c-0.144 0-0.257-0.057-0.339-0.171s-0.121-0.275-0.121-0.483v-0.109c0.002-0.204 0.043-0.362 0.122-0.473s0.192-0.168 0.335-0.168c0.146 0 0.258 0.056 0.337 0.168z"></path>
</symbol>
<symbol id="icon-logo2" viewBox="0 0 57 32">
<path fill="#afb1b8" style="fill:currentcolor" d="M26.72 3.2h-0.587c-0.103-0.003-0.225-0.005-0.347-0.005s-0.243 0.002-0.364 0.005l0.018-0c-1.973 0-3.893 0.533-5.653 1.333l-0.267 0.107v11.893l0.533-0.213c1.743-0.592 3.752-0.959 5.84-1.013l0.027-0.001v1.6h-0.587c-2.696 0.137-5.192 0.871-7.397 2.072l0.091-0.045v-15.147c2.29-1.369 5.049-2.181 7.998-2.187h0.268c1.008 0.045 1.959 0.179 2.879 0.394l-0.105-0.021v1.493c-0.64-0.16-1.28-0.213-1.92-0.267h-0.48zM29.387 4.747h1.067c2.956-0.008 5.73-0.778 8.138-2.124l-0.085 0.044v14.933c-2.273 1.328-5.003 2.113-7.918 2.113-1.086 0-2.146-0.109-3.171-0.316l0.102 0.017v-14.933c0.556 0.129 1.214 0.224 1.886 0.265l0.034 0.002zM36.96 4.853l-0.533 0.16-1.493 0.48c-1.346 0.355-2.892 0.558-4.485 0.558-0.336 0-0.67-0.009-1.001-0.027l0.046 0.002h-0.427v12.107h0.32l1.067 0.107c2.313-0.004 4.496-0.556 6.429-1.531l-0.082 0.038 0.213-0.107v-11.787z"></path>
<path fill="#afb1b8" style="fill:currentcolor" d="M19.040 24.107c-0.14-0.13-0.327-0.21-0.533-0.213h-0.374c-0.314 0.113-0.535 0.408-0.535 0.755 0 0.016 0 0.032 0.001 0.047l-0-0.002v2.027c0 0.16 0 0.32 0.107 0.427 0 0.107 0.107 0.213 0.16 0.267l0.32 0.16h0.587c0.315-0.13 0.533-0.435 0.533-0.791 0-0.003-0-0.006-0-0.009v0-0.213h-0.533v0.32l-0.213 0.213h-0.107c-0.015 0.003-0.032 0.005-0.050 0.005-0.089 0-0.168-0.044-0.216-0.111l-0.001-0.001-0.053-0.32v-1.92l0.053-0.267c0.042-0.095 0.136-0.161 0.245-0.161 0.008 0 0.015 0 0.023 0.001l-0.001-0c0.096 0.012 0.176 0.074 0.213 0.158l0.001 0.002c0.107 0.053 0.107 0.16 0.107 0.267v0.16h0.533v-0.213c-0.006-0.249-0.107-0.474-0.267-0.64l0 0zM22.187 24.107c-0.163-0.131-0.372-0.21-0.6-0.21-0.11 0-0.215 0.018-0.314 0.052l0.007-0.002c-0.107 0-0.213 0.053-0.267 0.16l-0.213 0.267-0.053 0.373v1.973l0.053 0.373c0 0.107 0.107 0.213 0.213 0.267 0.053 0.107 0.16 0.16 0.267 0.16 0.095 0.037 0.205 0.058 0.32 0.058s0.225-0.021 0.326-0.060l-0.006 0.002c0.107 0 0.213-0.053 0.267-0.16 0.165-0.156 0.267-0.376 0.267-0.62 0-0.007-0-0.014-0-0.021l0 0.001v-1.973l-0.053-0.373c0-0.107-0.107-0.213-0.213-0.267zM21.973 26.72c0 0.002 0 0.003 0 0.005 0 0.102-0.041 0.194-0.107 0.261l0-0c-0.068 0.069-0.162 0.112-0.267 0.112s-0.199-0.043-0.267-0.112l-0-0c-0.066-0.067-0.107-0.16-0.107-0.261 0-0.002 0-0.004 0-0.006v0-1.973c-0-0.002-0-0.003-0-0.005 0-0.102 0.041-0.194 0.107-0.261l-0 0c0.068-0.069 0.162-0.112 0.267-0.112s0.199 0.043 0.267 0.112l0 0c0.066 0.067 0.107 0.16 0.107 0.261 0 0.002 0 0.004-0 0.006v-0 1.973zM26.347 27.573v-3.68h-0.533l-0.64 1.973-0.693-1.973h-0.533v3.68h0.533v-2.24l0.533 1.6h0.267l0.533-1.6v2.24h0.533zM29.333 24.16l-0.32-0.213h-1.173v3.627h0.533v-1.44h0.267c0.16 0 0.32 0 0.48-0.107l0.267-0.267 0.16-0.32c0.028-0.144 0.044-0.31 0.044-0.48s-0.016-0.336-0.047-0.496l0.003 0.016-0.213-0.32zM29.067 25.227l-0.053 0.267-0.16 0.107c-0.040 0.011-0.086 0.017-0.133 0.017s-0.093-0.006-0.137-0.018l0.004 0.001h-0.213v-1.227h0.267l0.213 0.053 0.16 0.16v0.693zM31.787 23.893h-0.427l-0.8 3.68h0.533l0.16-0.8h0.693l0.16 0.8h0.533l-0.853-3.68zM31.307 26.293l0.267-1.333 0.267 1.333h-0.533zM35.2 26.133l-0.853-2.24h-0.48v3.68h0.533v-2.187l0.8 2.187h0.533v-3.68h-0.533v2.24zM38.4 23.893l-0.427 1.44-0.48-1.44h-0.533l0.747 2.133v1.547h0.533v-1.6l0.693-2.080h-0.533zM17.6 28.587h0.267v0.747h0.16v-0.747h0.267v-0.107h-0.693v0.107zM19.733 28.48l-0.32 0.853h0.16l0.053-0.213h0.373l0.053 0.213h0.213l-0.373-0.853h-0.16zM19.733 29.013l0.053-0.373 0.16 0.32h-0.267zM21.867 29.013h0.16v0.107l-0.213 0.053c-0.005 0-0.012 0.001-0.018 0.001-0.055 0-0.104-0.021-0.142-0.054l0 0-0.107-0.213c0-0.213 0.107-0.32 0.267-0.32 0.016-0.006 0.034-0.009 0.054-0.009 0.088 0 0.16 0.072 0.16 0.16 0 0.003-0 0.006-0 0.010l0-0h0.16c0-0.213-0.16-0.32-0.373-0.32l-0.32 0.107c-0.071 0.076-0.115 0.178-0.115 0.291 0 0.029 0.003 0.058 0.008 0.085l-0-0.003c0 0.107 0 0.213 0.107 0.32 0.075 0.067 0.175 0.108 0.284 0.108 0.013 0 0.025-0.001 0.038-0.002l-0.002 0c0.16 0 0.267 0 0.373-0.16v-0.32h-0.373v0.16zM24 28.48h-0.213v0.853h0.587v-0.16h-0.373v-0.693zM25.76 28.48h-0.16v0.853h0.16v-0.853zM27.52 29.013l-0.32-0.533h-0.16v0.853h0.16v-0.533l0.32 0.533h0.16v-0.853h-0.16v0.533zM29.12 28.96h0.427v-0.16h-0.427v-0.213h0.48v-0.107h-0.64v0.853h0.64v-0.16h-0.48v-0.213zM33.067 28.8h-0.373v-0.32h-0.16v0.853h0.16v-0.373h0.32v0.373h0.16v-0.853h-0.107v0.32zM34.667 28.96h0.373v-0.16h-0.373v-0.213h0.48v-0.107h-0.64v0.853h0.64v-0.16h-0.48v-0.213zM36.8 28.96c0.16 0 0.213-0.107 0.213-0.267 0.001-0.005 0.001-0.012 0.001-0.018 0-0.055-0.021-0.104-0.054-0.142l0 0c-0.065-0.035-0.142-0.055-0.224-0.055-0.015 0-0.030 0.001-0.045 0.002l0.002-0h-0.373v0.853h0.213v-0.373h0.107l0.053 0.107 0.213 0.267h0.213l-0.107-0.16-0.213-0.213zM36.64 28.8h-0.107v-0.213h0.267c0.059 0 0.107 0.048 0.107 0.107s-0.048 0.107-0.107 0.107v0c-0.024 0.004-0.052 0.006-0.080 0.006s-0.056-0.002-0.083-0.006l0.003 0zM38.453 28.96h0.427v-0.16h-0.427v-0.213h0.48v-0.107h-0.64v0.853h0.64v-0.16h-0.48v-0.213z"></path>
</symbol>
<symbol id="icon-Logo4" viewBox="0 0 57 32">
<path fill="#afb1b8" style="fill:currentcolor" d="M12.875 11.25c-1.281 0-2.313 0.938-2.313 2.063s1.031 2.063 2.313 2.063 2.313-0.938 2.313-2.063-1.031-2.063-2.313-2.063zM29.969 10.594c0-1.563-0.719-3.094-1.969-4.219s-2.969-1.719-4.719-1.75c-1.781 0.031-3.5 0.656-4.75 1.75s-1.969 2.656-1.969 4.219v8.719s13.406-1.344 13.406-8.719zM5.875 22.156c0 1.094 0.5 2.156 1.375 2.938s2.031 1.219 3.281 1.219 2.406-0.438 3.281-1.219 1.375-1.844 1.375-2.938v-6.063s-9.313 0.938-9.313 6.063zM10.531 23.25c-0.25 0-0.469-0.063-0.688-0.188-0.188-0.125-0.344-0.281-0.438-0.5-0.094-0.188-0.125-0.406-0.063-0.625 0.031-0.188 0.156-0.406 0.313-0.531s0.406-0.281 0.625-0.313c0.25-0.031 0.5-0.031 0.719 0.063s0.406 0.219 0.531 0.406c0.135 0.169 0.217 0.386 0.217 0.622 0 0.3-0.132 0.569-0.341 0.752l-0.001 0.001c-0.125 0.094-0.25 0.188-0.406 0.219l-0.469 0.094zM19.969 22.656h-0.906v0.906h-0.469v-2.25h1.469v0.375h-1v0.594h0.906v0.375zM22.219 22.5c0 0.219-0.063 0.406-0.125 0.594-0.152 0.299-0.458 0.501-0.81 0.501-0.012 0-0.023-0-0.035-0.001l0.002 0c-0.188 0-0.375-0.031-0.5-0.125s-0.281-0.219-0.344-0.375c-0.094-0.188-0.125-0.375-0.125-0.594v-0.094c0-0.25 0.031-0.438 0.125-0.594 0.146-0.316 0.46-0.531 0.825-0.531 0.007 0 0.013 0 0.020 0l-0.001-0c0.188 0 0.344 0.031 0.5 0.125s0.25 0.219 0.344 0.406c0.063 0.156 0.125 0.344 0.125 0.563v0.125zM21.719 22.375c0-0.219-0.031-0.406-0.125-0.531-0.063-0.125-0.188-0.188-0.344-0.188s-0.281 0.063-0.375 0.188-0.125 0.313-0.125 0.531v0.125c0 0.219 0.031 0.406 0.125 0.531s0.219 0.188 0.375 0.188 0.281-0.063 0.344-0.188c0.094-0.125 0.125-0.281 0.125-0.531v-0.125zM23.719 22.969c0-0.063-0.031-0.156-0.094-0.188l-0.313-0.156-0.406-0.156c-0.25-0.125-0.375-0.313-0.375-0.563 0-0.125 0.031-0.219 0.094-0.313 0.063-0.125 0.188-0.188 0.313-0.25l0.438-0.063c0.156 0 0.281 0.031 0.438 0.094 0.125 0.031 0.219 0.125 0.281 0.219l0.094 0.375h-0.469c0-0.094-0.031-0.188-0.094-0.25l-0.281-0.063c-0.094 0-0.188 0-0.25 0.063-0.063 0.031-0.094 0.125-0.094 0.188l0.094 0.188 0.344 0.156c0.25 0.063 0.469 0.156 0.594 0.281 0.094 0.125 0.156 0.281 0.156 0.438 0 0.219-0.063 0.375-0.219 0.469-0.156 0.125-0.344 0.156-0.594 0.156-0.188 0-0.344-0.031-0.469-0.094-0.156-0.063-0.25-0.125-0.344-0.25l-0.094-0.375h0.469c0 0.25 0.125 0.375 0.438 0.375 0.125 0 0.188-0.031 0.25-0.094 0.063-0.031 0.094-0.094 0.094-0.188zM26.219 21.688h-0.688v1.875h-0.469v-1.875h-0.688v-0.375h1.844v0.375zM27.875 22.594h-0.906v0.594h1.063v0.375h-1.531v-2.25h1.531v0.375h-1.063v0.531h0.906v0.375zM29.156 22.75h-0.375v0.813h-0.469v-2.25h0.844c0.25 0 0.469 0.063 0.625 0.156 0.125 0.125 0.219 0.313 0.219 0.531 0 0.156-0.063 0.281-0.125 0.375s-0.156 0.188-0.281 0.25l0.469 0.938h-0.5l-0.406-0.813zM28.781 22.375h0.375c0.094 0 0.188-0.031 0.25-0.094 0.094-0.063 0.125-0.156 0.125-0.25 0-0.125-0.031-0.188-0.094-0.25s-0.156-0.094-0.281-0.094h-0.375v0.688zM31.594 22.781v0.781h-0.469v-2.25h0.906c0.156 0 0.313 0.031 0.438 0.094s0.25 0.156 0.313 0.25c0.063 0.125 0.094 0.25 0.094 0.406 0 0.219-0.063 0.406-0.219 0.531s-0.375 0.188-0.625 0.188h-0.438zM31.594 22.406h0.438c0.125 0 0.219-0.031 0.281-0.094s0.094-0.156 0.094-0.25c0-0.125-0.031-0.219-0.094-0.281s-0.156-0.094-0.281-0.094h-0.438v0.719zM34.563 22.594h-0.875v0.594h1.031v0.375h-1.5v-2.25h1.5v0.375h-1.031v0.531h0.875v0.375zM36.75 21.688h-0.688v1.875h-0.469v-1.875h-0.688v-0.375h1.844v0.375zM38.375 22.594h-0.875v0.594h1.031v0.375h-1.5v-2.25h1.5v0.375h-1.031v0.531h0.875v0.375zM39.656 22.75h-0.375v0.813h-0.469v-2.25h0.844c0.281 0 0.469 0.063 0.625 0.156 0.156 0.125 0.219 0.313 0.219 0.531 0 0.156-0.031 0.281-0.094 0.375s-0.156 0.188-0.313 0.25l0.5 0.938h-0.5l-0.438-0.813zM39.281 22.375h0.375c0.125 0 0.219-0.031 0.281-0.094s0.094-0.156 0.094-0.25c0-0.125-0.031-0.188-0.094-0.25s-0.156-0.094-0.281-0.094h-0.375v0.688zM42.031 22.969c0-0.063-0.031-0.156-0.094-0.188l-0.313-0.156-0.406-0.156c-0.25-0.125-0.375-0.313-0.375-0.563 0-0.125 0.031-0.219 0.094-0.313 0.063-0.125 0.188-0.188 0.313-0.25l0.438-0.063c0.156 0 0.281 0.031 0.438 0.094 0.125 0.031 0.219 0.125 0.281 0.219l0.094 0.375h-0.469c0-0.094-0.031-0.188-0.094-0.25l-0.281-0.063c-0.094 0-0.188 0-0.25 0.063-0.063 0.031-0.094 0.125-0.094 0.188l0.094 0.188 0.344 0.156c0.25 0.063 0.469 0.156 0.594 0.281 0.094 0.125 0.156 0.281 0.156 0.438 0 0.219-0.063 0.375-0.219 0.469-0.156 0.125-0.344 0.156-0.594 0.156-0.188 0-0.344-0.031-0.469-0.094-0.156-0.063-0.25-0.125-0.344-0.25l-0.094-0.375h0.469c0 0.25 0.125 0.375 0.438 0.375 0.125 0 0.188-0.031 0.25-0.094 0.063-0.031 0.094-0.094 0.094-0.188z"></path>
</symbol>
<symbol id="icon-Logo3" viewBox="0 0 57 32">
<path fill="#afb1b8" style="fill:currentcolor" d="M19.413 26.187l0.16 0.107-0.32 0.213-0.48 0.107c-0.16 0-0.267 0-0.427-0.107l-0.32-0.16-0.213-0.32c-0.049-0.118-0.078-0.256-0.078-0.4s0.029-0.282 0.080-0.407l-0.003 0.007 0.213-0.32c0.107-0.053 0.213-0.16 0.373-0.16 0.127-0.043 0.274-0.067 0.427-0.067s0.299 0.025 0.436 0.070l-0.010-0.003 0.32 0.16-0.107 0.107h-0.16l-0.053-0.053c-0.119-0.067-0.262-0.107-0.413-0.107-0.005 0-0.009 0-0.014 0h0.001l-0.32 0.053-0.267 0.16c0 0.107-0.107 0.16-0.16 0.267v0.64l0.16 0.213 0.267 0.16h0.48c0.144-0.016 0.272-0.074 0.374-0.161l-0.001 0.001h0.053zM22.773 25.6l-0.053 0.427-0.267 0.32-0.32 0.16c-0.267 0.107-0.587 0.107-0.907 0-0.122-0.038-0.229-0.092-0.323-0.162l0.003 0.002-0.213-0.32c-0.049-0.118-0.078-0.256-0.078-0.4s0.029-0.282 0.080-0.407l-0.003 0.007c0-0.107 0.107-0.213 0.213-0.32l0.32-0.16c0.32-0.107 0.64-0.107 0.907 0l0.32 0.16c0.197 0.167 0.322 0.416 0.322 0.693 0 0.019-0.001 0.038-0.002 0.057l0-0.003zM22.453 25.6v-0.267c-0.064-0.205-0.222-0.363-0.422-0.425l-0.005-0.001c-0.096-0.031-0.206-0.049-0.32-0.049s-0.224 0.018-0.328 0.051l0.008-0.002-0.267 0.16-0.16 0.267v0.587c0.064 0.205 0.222 0.363 0.422 0.425l0.005 0.001h0.64l0.213-0.16c0.107-0.053 0.16-0.16 0.16-0.267l0.053-0.267zM25.067 25.973v0.053l0.053-0.053v-0.107l0.8-1.173h0.373v1.867h-0.267v-1.493l-0.747 1.173-0.107 0.053h-0.107l-0.907-1.227v1.547h-0.267v-1.867h0.32l0.747 1.173 0.053 0.107zM27.84 25.867v0.693h-0.267v-1.867h1.013c0.107 0 0.16 0.107 0.267 0.16l0.107 0.16 0.053 0.267v0.213l-0.213 0.213-0.213 0.107-0.373 0.053h-0.373zM27.84 25.653h0.587l0.16-0.107 0.107-0.107v-0.373c0-0.053 0-0.107-0.107-0.16l-0.373-0.107h-0.373v0.8zM31.787 26.56h-0.32l-0.213-0.533h-1.013l-0.213 0.533h-0.32l0.853-1.867h0.32l0.907 1.867zM30.347 25.867h0.8l-0.32-0.747-0.107-0.213v0.213l-0.373 0.747zM33.067 24.693l1.28 1.44v-1.44h0.267v1.867h-0.213l-1.333-1.493v1.44h-0.267v-1.867h0.213zM36.747 25.813v0.747h-0.267v-0.747l-0.8-1.12h0.32l0.533 0.8c0.019 0.044 0.037 0.097 0.051 0.152l0.002 0.008 0.053-0.107 0.053-0.053 0.533-0.747v-0.053h0.32l-0.747 1.12zM24.907 21.493h0.427c1.934-0.748 3.542-1.978 4.727-3.546l0.019-0.027c1.067-1.409 1.709-3.191 1.709-5.123 0-0.074-0.001-0.147-0.003-0.221l0 0.011-2.133-1.813c0.131 0.595 0.206 1.278 0.206 1.979 0 1.428-0.312 2.783-0.871 4.001l0.025-0.060c-0.908 1.992-2.315 3.621-4.065 4.774l-0.042 0.026z"></path>
<path fill="#afb1b8" style="fill:currentcolor" d="M24.16 21.333v0.053c2.027-1.227 3.52-2.933 4.373-4.907s0.96-4.16 0.373-6.187l-3.040-2.667c0.962 1.642 1.53 3.616 1.53 5.722 0 3.105-1.234 5.922-3.239 7.987l0.003-0.003zM34.613 14.827c-0.585 2.2-1.871 4.040-3.6 5.315l-0.026 0.019-1.76 1.067c1.558-0.405 2.916-1.105 4.073-2.042l-0.020 0.016c1.067-0.907 2.027-2.027 2.56-3.253l-1.227-1.067z"></path>
<path fill="#afb1b8" style="fill: currentcolor" d="M34.133 14.56l-1.813-1.6c-0.008 1.887-0.627 3.628-1.67 5.036l0.016-0.023c-1.128 1.532-2.599 2.747-4.305 3.544l-0.069 0.029 1.227-0.053c1.677-0.617 3.104-1.564 4.263-2.77l0.003-0.004c1.087-1.123 1.888-2.529 2.28-4.098l0.013-0.062zM24.427 6.507l-2.133-1.867c-1.896 0.618-3.489 1.729-4.679 3.182l-0.014 0.018c-1.087 1.346-1.749 3.075-1.76 4.957v0.003c0 1.973 0.747 3.84 2.133 5.333 1.387 1.6 3.36 2.667 5.493 3.2 1.996-2.037 3.228-4.83 3.228-7.91 0-2.593-0.873-4.982-2.341-6.89l0.020 0.027zM38.987 14.24c0-2.293-1.067-4.533-2.933-6.133-1.898-1.63-4.386-2.623-7.105-2.623-1.276 0-2.5 0.218-3.638 0.62l0.077-0.024 12.96 11.307c0.427-1.013 0.64-2.080 0.64-3.147z"></path>
</symbol>
<symbol id="icon-Logo6" viewBox="0 0 57 32">
<path fill="#afb1b8" style="fill:currentcolor" d="M28.48 14.613c-0.202-0.265-0.323-0.6-0.323-0.964 0-0.036 0.001-0.072 0.004-0.107l-0 0.005v-1.547c0-0.427 0.107-0.8 0.32-1.067 0.213-0.213 0.587-0.373 1.067-0.373 0.533 0 0.907 0.107 1.067 0.32 0.267 0.267 0.373 0.587 0.32 0.907v0.373h-0.853v-0.693c0-0.107-0.107-0.16-0.16-0.213-0.088-0.067-0.199-0.107-0.32-0.107v0c-0.121 0-0.232 0.040-0.321 0.108l0.001-0.001c-0.107 0-0.16 0.107-0.16 0.213v2.24l0.053 0.533 0.213 0.107 0.213 0.053c0.107 0 0.213 0 0.32-0.107l0.107-0.213v-0.747h0.907v0.373c0.001 0.022 0.002 0.047 0.002 0.073 0 0.331-0.1 0.638-0.272 0.893l0.004-0.006c-0.213 0.213-0.533 0.32-1.067 0.32s-0.907-0.107-1.067-0.373zM32.16 14.613c-0.267-0.213-0.373-0.533-0.373-1.067v-1.6c0-0.427 0.107-0.8 0.373-1.067 0.213-0.16 0.533-0.32 1.067-0.32s0.907 0.16 1.12 0.373c0.213 0.213 0.32 0.533 0.32 1.067v1.6c0 0.427-0.107 0.8-0.32 1.067-0.213 0.213-0.587 0.32-1.067 0.32-0.533 0-0.907-0.107-1.12-0.373zM33.653 14.24l0.107-0.48v-1.973c0-0.16 0-0.32-0.107-0.48l-0.16-0.107c-0.040-0.011-0.086-0.017-0.133-0.017s-0.093 0.006-0.137 0.018l0.004-0.001c-0.032-0.007-0.069-0.011-0.107-0.011s-0.075 0.004-0.11 0.011l0.003-0.001-0.16 0.107c-0.107 0.16-0.16 0.32-0.107 0.48v1.973c0 0.16 0 0.32 0.107 0.533l0.16 0.107c0.071 0.030 0.154 0.047 0.24 0.047s0.169-0.017 0.244-0.048l-0.004 0.002 0.16-0.16zM35.733 10.667h0.96l0.693 2.933 0.747-2.987h0.907l0.053 4.32h-0.64l-0.107-2.987-0.693 2.987h-0.533l-0.693-2.987-0.16 2.987h-0.693l0.107-4.267zM40.16 10.667h1.493c0.853 0 1.28 0.373 1.28 1.173s-0.48 1.173-1.333 1.173h-0.533v1.92h-0.907v-4.267zM41.44 12.48h0.267l0.213-0.16 0.16-0.48-0.053-0.373-0.053-0.107-0.16-0.107c-0.107-0.053-0.267-0.107-0.373-0.053h-0.373v1.28h0.373zM44.267 10.667h0.907l1.067 4.267h-0.907l-0.16-1.013h-0.907l-0.213 1.013h-0.853l1.067-4.267zM45.067 13.44l-0.373-1.813-0.32 1.813h0.693zM46.987 10.667h0.64l1.227 2.4v-2.4h0.747v4.267h-0.587l-1.227-2.56v2.56h-0.853v-4.267zM51.36 13.333l-1.013-2.667h0.853l0.64 1.653 0.533-1.707h0.853l-1.013 2.667v1.653h-0.853v-1.6zM29.867 16.8v0.267h-0.693v1.707h-0.373v-1.707h-0.747v-0.267h1.813zM32.213 18.773h-0.373l-0.213-0.533h-1.013l-0.213 0.533h-0.32l0.907-1.973h0.32l0.907 1.973zM30.72 18.133h0.853l-0.373-0.8-0.053-0.213v0.107l-0.053 0.107-0.373 0.8zM33.76 18.613h0.16c0.115-0.001 0.225-0.021 0.328-0.056l-0.008 0.002 0.107-0.053v-0.48h-0.427v-0.16h0.693v0.747c-0.167 0.11-0.366 0.186-0.58 0.213l-0.007 0.001h-0.267c-0.16 0-0.32 0-0.48-0.107-0.142-0.031-0.267-0.087-0.377-0.162l0.004 0.002-0.213-0.32-0.107-0.427c0-0.16 0-0.267 0.107-0.427 0-0.107 0.107-0.213 0.213-0.32 0.107-0.053 0.213-0.16 0.373-0.16 0.173-0.073 0.374-0.115 0.585-0.115 0.057 0 0.113 0.003 0.168 0.009l-0.007-0.001c0.142 0.035 0.266 0.090 0.378 0.163l-0.005-0.003 0.16 0.107-0.053 0.107h-0.213l-0.16-0.107c-0.109-0.054-0.235-0.092-0.368-0.106l-0.005-0c-0.138 0.014-0.265 0.051-0.379 0.109l0.006-0.003-0.267 0.107-0.16 0.267v0.693c0 0.107 0.107 0.213 0.213 0.267 0.142 0.133 0.334 0.214 0.545 0.214 0.015 0 0.029-0 0.044-0.001l-0.002 0zM36.64 18.56h1.013v0.213h-1.28v-1.973h0.267v1.76zM38.667 18.773h-0.267v-1.973h0.32v1.973zM39.84 16.8v0.053l1.387 1.493v-1.547h0.267v1.973h-0.267l-1.333-1.493v1.547h-0.267v-1.973h0.16zM43.733 16.8v0.213h-1.067v0.693h0.853v0.213h-0.853v0.64h1.067v0.213h-1.387v-1.973h1.387zM11.307 4.64l13.76 3.36v11.733l-13.76-3.36v-11.733zM10.4 3.573v13.493l15.52 3.733v-13.333l-15.467-3.84z"></path>
<path fill="#afb1b8" style="fill: currentcolor" d="M18.72 27.040l-15.52-3.787v-13.44l15.52 3.84v13.333z"></path>
<path fill="#afb1b8" style="fill:currentcolor" d="M10.667 4.48l13.547 3.307-5.76 5.013-13.547-3.36 5.76-4.96zM10.4 3.627l-7.2 6.187 15.52 3.84 7.2-6.24-15.467-3.787zM19.573 26.293l6.4-5.493-6.4-1.547v7.040z"></path>
</symbol>
<symbol id="icon-Logo5" viewBox="0 0 57 32">
<path fill="#afb1b8" style="fill: currentcolor" d="M14.293 23.84c0.107 0.16 0.16 0.373 0.16 0.533l-0.053 0.373-0.213 0.267c-0.267 0.213-0.587 0.267-0.907 0.267h-1.547v-3.307h1.493c0.32 0 0.64 0.053 0.853 0.213l0.213 0.267 0.107 0.373c0 0.16-0.053 0.373-0.213 0.533l-0.427 0.213c0.213 0 0.373 0.16 0.533 0.267zM12.48 23.36h0.64c0.107 0 0.267 0 0.373-0.107l0.107-0.16 0.053-0.16v-0.16l-0.16-0.16c-0.107-0.107-0.267-0.107-0.427-0.107h-0.587v0.853zM13.547 24.64l0.16-0.16v-0.373l-0.107-0.16c-0.16-0.107-0.32-0.107-0.48-0.107h-0.64v0.907h0.64c0.16 0 0.32 0 0.48-0.107zM17.387 25.28l-0.853-1.28h-0.32v1.28h-0.747v-3.307h1.387c0.373 0 0.693 0.107 0.96 0.267 0.213 0.213 0.32 0.427 0.32 0.693s-0.053 0.533-0.213 0.693c-0.16 0.16-0.427 0.267-0.64 0.32l0.907 1.333h-0.8zM16.213 23.52h0.587c0.427 0 0.64-0.16 0.64-0.48l-0.053-0.213c-0.027-0.062-0.063-0.115-0.107-0.16l0 0-0.48-0.16h-0.587v1.067zM21.333 24.64h-1.44l-0.267 0.64h-0.747l1.333-3.253h0.8l1.333 3.253h-0.747l-0.267-0.64zM21.12 24.107l-0.533-1.387-0.533 1.387h1.067zM26.293 25.28h-0.693l-1.6-2.24v2.24h-0.747v-3.307h0.693l1.6 2.24v-2.24h0.747v3.307zM30.4 24.533c-0.107 0.213-0.373 0.427-0.64 0.533-0.273 0.136-0.593 0.215-0.933 0.215-0.028 0-0.056-0.001-0.084-0.002l0.004 0h-1.28v-3.307h1.333c0.373 0 0.693 0.053 1.067 0.213 0.213 0.107 0.48 0.32 0.587 0.533 0.143 0.254 0.228 0.557 0.228 0.88s-0.084 0.626-0.233 0.889l0.005-0.009zM29.6 24.427c0.195-0.209 0.315-0.491 0.315-0.8s-0.12-0.591-0.316-0.801l0.001 0.001c-0.189-0.175-0.444-0.283-0.723-0.283-0.065 0-0.128 0.006-0.19 0.017l0.006-0.001h-0.533v2.133h0.533c0.32 0 0.64-0.107 0.907-0.267zM21.813 3.627s9.28 3.2 9.067 7.84v7.893s-9.28-3.2-9.067-7.893v-7.84zM39.2 17.493c1.76-1.067 3.733-1.76 5.867-1.973v-2.453c-2.425 0.857-4.431 2.398-5.842 4.389l-0.025 0.037z"></path>
<path fill="#afb1b8" style="fill: currentcolor" d="M38.133 18.24c1.44-2.667 3.947-4.693 6.933-5.707v-7.093s-13.227 4.587-12.96 11.2v11.2l1.547-0.587v-1.067c0.32-3.093 1.92-5.92 4.48-7.947z"></path>
<path fill="#afb1b8" style="fill: currentcolor" d="M36.853 22.4c0.107-0.747 0.213-1.547 0.48-2.293-1.678 1.77-2.738 4.14-2.826 6.756l-0 0.017 2.56-1.227c-0.213-1.067-0.32-2.133-0.213-3.2zM37.387 22.4c-0.029 0.287-0.045 0.62-0.045 0.957 0 0.718 0.075 1.419 0.217 2.096l-0.012-0.066c3.627-1.973 7.68-5.067 7.52-8.747v-0.32c-2.56 0.267-5.013 1.28-6.88 2.933-0.427 1.067-0.693 2.133-0.8 3.2z"></path>
</symbol>
<symbol id="icon-instagram-team" viewBox="0 0 32 32">
<path fill="#afb1b8" style="fill:currentcolor" d="M31.968 9.408c-0.074-1.701-0.349-2.869-0.742-3.882-0.424-1.111-1.054-2.059-1.85-2.837l-0.001-0.001c-0.78-0.792-1.724-1.419-2.778-1.827l-0.054-0.018c-1.019-0.394-2.181-0.667-3.882-0.742-1.712-0.082-2.256-0.101-6.602-0.101-4.344 0-4.888 0.019-6.595 0.094-1.699 0.074-2.869 0.349-3.88 0.742-1.112 0.424-2.060 1.054-2.839 1.85l-0.001 0.001c-0.791 0.78-1.418 1.724-1.825 2.778l-0.018 0.054c-0.395 1.019-0.669 2.181-0.744 3.882-0.082 1.712-0.101 2.256-0.101 6.602 0 4.344 0.019 4.888 0.094 6.595 0.075 1.701 0.35 2.869 0.744 3.882 0.426 1.11 1.055 2.057 1.849 2.837l0.001 0.001c0.78 0.792 1.724 1.418 2.778 1.825l0.054 0.018c1.019 0.395 2.182 0.67 3.882 0.744 1.707 0.075 2.251 0.094 6.595 0.094 4.346 0 4.89-0.019 6.595-0.094 1.701-0.074 2.869-0.349 3.882-0.742 2.157-0.85 3.833-2.526 4.664-4.628l0.019-0.055c0.394-1.019 0.669-2.182 0.744-3.882 0.075-1.707 0.093-2.251 0.093-6.595s-0.006-4.888-0.080-6.595zM29.088 22.474c-0.070 1.563-0.333 2.406-0.55 2.97-0.552 1.399-1.64 2.486-3.004 3.024l-0.036 0.012c-0.56 0.219-1.411 0.482-2.968 0.55-1.688 0.075-2.194 0.094-6.464 0.094-4.269 0-4.782-0.019-6.464-0.094-1.563-0.069-2.406-0.331-2.97-0.55-0.721-0.269-1.334-0.676-1.836-1.192l-0.001-0.001c-0.517-0.503-0.924-1.117-1.184-1.803l-0.011-0.034c-0.218-0.563-0.48-1.413-0.549-2.97-0.075-1.688-0.094-2.195-0.094-6.464 0-4.27 0.019-4.784 0.094-6.464 0.069-1.563 0.331-2.406 0.549-2.97 0.269-0.722 0.678-1.337 1.198-1.837l0.002-0.002c0.504-0.517 1.119-0.923 1.806-1.182l0.034-0.011c0.56-0.219 1.411-0.48 2.968-0.55 1.688-0.074 2.195-0.093 6.464-0.093 4.275 0 4.782 0.019 6.464 0.093 1.563 0.069 2.406 0.331 2.97 0.55 0.693 0.256 1.325 0.662 1.837 1.194 0.531 0.52 0.938 1.144 1.195 1.84 0.218 0.56 0.48 1.411 0.549 2.968 0.075 1.688 0.094 2.194 0.094 6.464 0 4.269-0.019 4.768-0.094 6.458z"></path>
<path fill="#afb1b8" style="fill:currentcolor" d="M16.059 7.782c-4.539 0.002-8.218 3.682-8.219 8.221v0c0.091 4.471 3.737 8.060 8.221 8.060s8.13-3.589 8.221-8.052l0-0.009c-0.001-4.54-3.681-8.22-8.221-8.221h-0zM16.059 21.334c-2.945-0-5.332-2.388-5.332-5.333s2.388-5.333 5.333-5.333c0 0 0.001 0 0.001 0h-0c2.946 0 5.334 2.388 5.334 5.334s-2.388 5.334-5.334 5.334v0zM26.525 7.458c0 1.060-0.86 1.92-1.92 1.92s-1.92-0.86-1.92-1.92v0c0-1.060 0.86-1.92 1.92-1.92s1.92 0.86 1.92 1.92v0z"></path>
</symbol>
<symbol id="icon-facebook-team" viewBox="0 0 32 32">
<path fill="#afb1b8" style="fill:currentcolor" d="M20.8 4.8h3.2v-4.8h-4.8c-3.2 0-6.4 3.2-6.4 8v4.8h-4.8v4.8h4.8v14.4h6.4v-14.4h3.2l1.6-4.8h-4.8v-4.8l1.6-3.2z"></path>
</symbol>
<symbol id="icon-twitter-team" viewBox="0 0 32 32">
<path fill="#afb1b8" style="fill:currentcolor" d="M32 6.4h-3.2l1.6-3.2-3.2 1.6c-1.133-1.955-3.215-3.25-5.6-3.25-3.562 0-6.45 2.888-6.45 6.45 0 1.177 0.315 2.281 0.866 3.231l-0.017-0.031c-6.4 0-11.2-3.2-14.4-6.4-0.257 0.666-0.406 1.437-0.406 2.242 0 2.518 1.454 4.696 3.568 5.741l0.037 0.017h-3.2c0 3.2 1.6 4.8 4.8 6.4-0.48 0.129-1.031 0.203-1.6 0.203s-1.12-0.074-1.645-0.213l0.045 0.010c1.6 1.6 3.2 4.8 6.4 4.8-1.917 1.206-4.248 1.922-6.746 1.922-1.012 0-1.996-0.117-2.94-0.339l0.087 0.017 9.6 3.2c10.604 0 19.2-8.596 19.2-19.2v0l3.2-3.2z"></path>
</symbol>
<symbol id="icon-linkedin-team" viewBox="0 0 32 32">
<path fill="#afb1b8" style="fill:currentcolor" d="M32 32v-11.2c0-6.4-1.6-11.2-8-11.2l-6.4 3.2v-1.6h-6.4v20.8h6.4v-11.2c0-1.6 1.6-4.8 4.8-4.8s3.2 3.2 3.2 4.8v11.2h6.4zM0 11.2h6.4v20.8h-6.4v-20.8zM3.2 0l-3.2 3.2c0 3.2 1.6 4.8 3.2 4.8 3.2 0 4.8-1.6 4.8-4.8 0-1.6-1.6-3.2-4.8-3.2z"></path>
</symbol>
<symbol id="icon-close-btn" viewBox="0 0 32 32">
<path fill="#afb1b8" style="fill:currentcolor" d="M26.667 7.289l-1.956-1.956-7.822 7.822-7.822-7.822-1.956 1.956 7.822 7.822-7.822 7.822 1.956 1.956 7.822-7.822 7.822 7.822 1.956-1.956-7.822-7.822 7.822-7.822z"></path>
</symbol>
<symbol id="icon-user" viewBox="0 0 32 32">
<path fill="#afb1b8" style="fill:currentcolor" d="M16 16c2.946 0 5.333-2.388 5.333-5.333s-2.388-5.333-5.333-5.333v0c-2.946 0-5.333 2.388-5.333 5.333s2.388 5.333 5.333 5.333v0zM16 19.556c-3.556 0-10.667 1.778-10.667 5.333l1.778 1.778h17.778l1.778-1.778c0-3.556-7.111-5.333-10.667-5.333z"></path>
</symbol>
<symbol id="icon-phone-black" viewBox="0 0 32 32">
<path fill="#afb1b8" style="fill:currentcolor" d="M24.889 19.733l-3.2-0.356c-0.889 0-1.778 0.178-2.133 0.711l-2.489 2.489c-3.556-1.778-6.578-4.978-8.356-8.533l2.311-2.489c0.533-0.533 0.889-1.244 0.711-1.956l-0.356-3.378c0-1.244-1.244-2.133-2.489-2.133h-2.311c-1.422 0-2.667 1.067-2.489 2.667 0.711 10.844 9.422 19.556 20.444 20.444 1.422 0 2.667-1.244 2.667-2.667v-2.133c0-1.422-1.067-2.489-2.311-2.667z"></path>
</symbol>
<symbol id="icon-email-black" viewBox="0 0 32 32">
<path fill="#afb1b8" style="fill:currentcolor" d="M26.667 5.333h-21.333c-1.422 0-2.667 1.244-2.667 2.667v16c0 1.422 1.244 2.667 2.667 2.667h21.333c1.422 0 2.667-1.244 2.667-2.667v-16c0-1.422-1.244-2.667-2.667-2.667zM26.133 11.022l-9.422 5.867c-0.356 0.356-1.067 0.356-1.422 0l-9.422-5.867c-0.281-0.199-0.463-0.523-0.463-0.889 0-0.599 0.486-1.085 1.085-1.085 0.233 0 0.449 0.073 0.626 0.198l-0.003-0.002 8.889 5.333 8.889-5.333c0.173-0.123 0.389-0.196 0.622-0.196 0.599 0 1.085 0.486 1.085 1.085 0 0.366-0.181 0.69-0.459 0.887l-0.003 0.002z"></path>
</symbol>
<symbol id="icon-checkbox" viewBox="0 0 34 32">
<path fill="#afb1b8" style="fill:currentcolor" d="M30.293 3.627v24.747h-26.453v-24.747h26.453zM30.293 0h-26.453c-2.133 0-3.84 1.707-3.84 3.627v24.747c0 2.133 1.707 3.627 3.84 3.627h26.453c2.133 0 3.84-1.707 3.84-3.627v-24.747c0-2.133-1.707-3.627-3.84-3.627z"></path>
</symbol>
<symbol id="icon-checkbox-check" viewBox="0 0 34 32">
<path fill="#2196f3" style="fill:currentcolor" d="M4.267 0h25.6c2.356 0 4.267 1.91 4.267 4.267v23.467c0 2.356-1.91 4.267-4.267 4.267h-25.6c-2.356 0-4.267-1.91-4.267-4.267v-23.467c0-2.356 1.91-4.267 4.267-4.267z"></path>
<path fill="#fff" style="fill:currentcolor stroke: var(--color2, #fff)" stroke="#fff" stroke-linejoin="miter" stroke-linecap="butt" stroke-miterlimit="4" stroke-width="0.4267" d="M8.533 16.64l-0.213-0.213-2.133 1.92v0.213l7.467 7.253h0.213l16.213-15.36v-0.213l-2.133-1.92-14.080 13.44-5.333-5.12z"></path>
</symbol>
<symbol id="icon-send" viewBox="0 0 32 32">
<path fill="#fff" style="fill: var(--color1, #fff)" d="M32 0l-32 18 10.267 3.733 15.733-14.667-12 16v8.933l5.733-6.667 7.333 2.667 4.933-28z"></path>
</symbol>
<symbol id="icon-menu-btn" viewBox="0 0 32 32">
<path d="M6.4 11.733v-2.133h19.2v2.133h-19.2zM6.4 17.067h19.2v-2.133h-19.2v2.133zM6.4 22.4h19.2v-2.133h-19.2v2.133z"></path>
</symbol>
<symbol id="icon-close" viewBox="0 0 32 32">
<path d="M23.733 10.304l-1.504-1.504-5.963 5.963-5.963-5.963-1.504 1.504 5.963 5.963-5.963 5.963 1.504 1.504 5.963-5.963 5.963 5.963 1.504-1.504-5.963-5.963 5.963-5.963z"></path>
</symbol>
</defs>
</svg>
